<!-- Generator: Adobe Illustrator 23.0.4, SVG Export Plug-In  -->
<svg version="1.1" xmlns="http://www.w3.org/2000/svg" xmlns:xlink="http://www.w3.org/1999/xlink" x="0px" y="0px" viewBox="0 0 255 222.6" style="enable-background:new 0 0 1000 222.6;" xml:space="preserve">
<style type="text/css">
	.st0{fill:#004B74;}
	.st1{fill-rule:evenodd;clip-rule:evenodd;fill:#004B74;}
	.st2{fill-rule:evenodd;clip-rule:evenodd;fill:#863D8B;}
	.st3{fill-rule:evenodd;clip-rule:evenodd;fill:#00B4BD;}
	.st4{fill-rule:evenodd;clip-rule:evenodd;fill:#739C38;}
	.st5{fill-rule:evenodd;clip-rule:evenodd;fill:#EA591F;}
</style>
<defs>
</defs>
<g>
	<path class="st1" d="M164.2,178.3l-3.3-34.6L172,61.9c0.3-1,1-2,2-2.6c1.3-1.6,2.9-2.3,4.9-2.3c1,0.3,2,1.3,2,2.6l5.2,56.7
		l-11.7,59.3l0,0c-0.3,1-1,2.3-2,2.9c-1.6,1.6-3.6,2.3-5.2,2.3C165.5,180.9,164.2,179.9,164.2,178.3z"/>
	<path class="st1" d="M122.2,172.4l-2.9-11.4l4.2-57.4c0.3-1,0.7-2.3,1.6-2.9c0.7-1,2-1.6,2.9-2.3c1.6,0.7,2.9,1.6,3.3,3.3l6.8,25.8
		l-5.9,42.7v0.3c-0.3,0.7-1,1.6-1.6,2.3c-1.3,1.6-3.3,2.6-5.2,2.9C124.1,175.4,122.5,174.1,122.2,172.4z"/>
	<path class="st1" d="M82.7,166.6l-4.9-8.8l2.9-26.7c0.3-0.7,0.7-1.6,1.3-2.3c1.3-1,2.6-1.6,3.9-1.6c1.6,0.3,2.9,1.3,3.6,2.6
		l4.9,8.8l-1.6,25.8v0.3c-0.3,0.7-1,1.3-1.6,2c-1.3,1.6-2.9,2.3-4.9,2.6C85,168.8,83.4,167.9,82.7,166.6z M80.8,130.7L80.8,130.7
		L80.8,130.7L80.8,130.7z"/>
	<path class="st1" d="M55,198.5c0-13,10.8-23.5,23.8-23.5c12.7,0,23.5,10.4,23.5,23.5S91.5,222,78.8,222C65.8,222,55,211.5,55,198.5
		z"/>
	<path class="st1" d="M141.1,204.4c0-9.8,8.1-17.9,18.3-17.9s17.9,8.1,17.9,17.9c0,10.1-7.8,18.3-17.9,18.3S141.1,214.5,141.1,204.4
		z"/>
	<path class="st2" d="M73.6,168.2l-18.9-2.9l-3.3-0.3l0,0l-1.3-0.3l0,0l-4.6-0.7c1.3,0,2.9-0.7,3.9-2c0.7-0.7,1-1.3,1.3-2.3l0,0
		l3.6-35.2c0.3-1.6,2-2.9,3.9-2.9l2.3,0.3l19.6,3.9l0,0l1.6,0.3l0,0l4.2,1c-1.3,0-2.6,0.7-3.9,1.6c-0.7,0.7-1,1.6-1.3,2.3l-3.6,34.2
		C77.2,167.2,75.2,168.5,73.6,168.2z M80.8,130.7L80.8,130.7L80.8,130.7L80.8,130.7z"/>
	<path class="st3" d="M115,174.1h-0.3l-22.2-3.9l0,0l-6.2-1c2,0,3.6-1,4.9-2.6c0.7-0.7,1.3-1.3,1.6-2v-0.3l4.9-67.8
		c0-2,1.6-3.3,3.6-3.3h0.3l26.4,5.2l0,0c-1,0.7-2,1.3-2.9,2.3c-1,1-1.3,2-1.6,2.9l-4.9,67.1C118.3,172.8,116.6,174.1,115,174.1z"/>
	<path class="st4" d="M154.4,179.3l-22.8-2.9l-6.2-0.7c2-0.3,3.9-1.3,5.2-2.9c0.7-0.7,1.3-1.6,1.6-2.3v-0.3l16-117
		c0-0.7,0.3-1.6,1-2c1-0.7,2-0.7,2.9-0.7c0.3,0,0.3,0.3,0.7,0.3l0,0l20.2,4.6l0.3,0.3l5.5,1.3c-2,0-3.6,0.7-4.9,2.3
		c-1,0.7-1.6,1.6-2,2.6L156.4,177C156.4,178,155.4,178.9,154.4,179.3L154.4,179.3z"/>
	<path class="st5" d="M197.1,186.1l-24.1-3.9l0,0l-6.2-1.3c2,0,3.9-0.7,5.5-2.3c1-0.7,1.6-1.6,2-2.9l0,0L208.5,3.6
		c0-0.7,0.3-1.3,1-1.6c1-1,2.3-1.6,3.6-2l28.4,3.6c-2,0.3-3.9,1-5.2,2.3c-1,1-1.6,2-2,3.3l-34.9,175
		C199.1,185.1,198.1,186.1,197.1,186.1L197.1,186.1z"/>
	<path class="st1" d="M251.2,39.1l-21.8-5.9l4.9-24.1c0.3-1.3,1-2.3,2-3.3c1.3-1.3,3.3-2,5.2-2.3c1.3,0,2.6,1.3,3.3,2.6l9.1,30.3
		c0.3,1.3-0.3,2.6-2,2.6H251.2z"/>
	<path class="st1" d="M42,162.3L0.3,79.2c-1.3-2.3,2.6-5.5,5.2-5.5l31.6,4.9l0,0l25.1,3.6l-7.5,20.2l-9.8-1.3l-9.8-1l12.4,27.1
		l5.2,12.1l-2,20.5l0,0c-0.3,1-0.7,1.6-1.3,2.3c-1,1.3-2.6,2-3.9,2C43.6,163.6,42.3,163,42,162.3z"/>
</g>
</svg>