<svg id="flat" height="512" viewBox="0 0 512 512" width="512" xmlns="http://www.w3.org/2000/svg"><path d="m184 144h144v192h-144z" fill="#4976f2"/><path d="m376 136h96v64h-96z" fill="#7dafff"/><path d="m360 200h128v288h-128z" fill="#548aff"/><path d="m384 224h16v16h-16z" fill="#9ce6ed"/><path d="m416 224h16v16h-16z" fill="#9ce6ed"/><path d="m400 160h16v16h-16z" fill="#9ce6ed"/><path d="m432 160h16v16h-16z" fill="#9ce6ed"/><path d="m448 224h16v16h-16z" fill="#9ce6ed"/><path d="m384 256h16v16h-16z" fill="#9ce6ed"/><path d="m416 256h16v16h-16z" fill="#9ce6ed"/><path d="m448 256h16v16h-16z" fill="#9ce6ed"/><path d="m384 288h16v16h-16z" fill="#9ce6ed"/><path d="m416 288h16v16h-16z" fill="#9ce6ed"/><path d="m448 288h16v16h-16z" fill="#9ce6ed"/><path d="m384 320h16v16h-16z" fill="#9ce6ed"/><path d="m416 320h16v16h-16z" fill="#9ce6ed"/><path d="m448 320h16v16h-16z" fill="#9ce6ed"/><path d="m384 352h16v16h-16z" fill="#9ce6ed"/><path d="m416 352h16v16h-16z" fill="#9ce6ed"/><path d="m448 352h16v16h-16z" fill="#9ce6ed"/><path d="m384 384h16v16h-16z" fill="#9ce6ed"/><path d="m416 384h16v16h-16z" fill="#9ce6ed"/><path d="m448 384h16v16h-16z" fill="#9ce6ed"/><path d="m384 416h16v16h-16z" fill="#9ce6ed"/><path d="m416 416h16v16h-16z" fill="#9ce6ed"/><path d="m448 416h16v16h-16z" fill="#9ce6ed"/><path d="m384 448h16v16h-16z" fill="#9ce6ed"/><path d="m416 448h16v16h-16z" fill="#9ce6ed"/><path d="m448 448h16v16h-16z" fill="#9ce6ed"/><path d="m40 136h96v64h-96z" fill="#7dafff"/><path d="m24 200h128v288h-128z" fill="#548aff"/><path d="m152 336h208v152h-208z" fill="#4976f2"/><path d="m360 336-104-56-104 56z" fill="#7dafff"/><g fill="#9ce6ed"><path d="m48 224h16v16h-16z"/><path d="m80 224h16v16h-16z"/><path d="m64 160h16v16h-16z"/><path d="m96 160h16v16h-16z"/><path d="m112 224h16v16h-16z"/><path d="m216 168h16v16h-16z"/><path d="m248 168h16v16h-16z"/><path d="m280 168h16v16h-16z"/><path d="m216 200h16v16h-16z"/><path d="m248 200h16v16h-16z"/><path d="m280 200h16v16h-16z"/><path d="m216 232h16v16h-16z"/><path d="m248 232h16v16h-16z"/><path d="m280 232h16v16h-16z"/><path d="m48 256h16v16h-16z"/><path d="m80 256h16v16h-16z"/><path d="m112 256h16v16h-16z"/><path d="m48 288h16v16h-16z"/><path d="m80 288h16v16h-16z"/><path d="m112 288h16v16h-16z"/><path d="m48 320h16v16h-16z"/><path d="m80 320h16v16h-16z"/><path d="m112 320h16v16h-16z"/><path d="m48 352h16v16h-16z"/><path d="m80 352h16v16h-16z"/><path d="m112 352h16v16h-16z"/><path d="m184 360h16v16h-16z"/><path d="m216 360h16v16h-16z"/><path d="m248 360h16v16h-16z"/><path d="m280 360h16v16h-16z"/><path d="m312 360h16v16h-16z"/><path d="m184 392h16v16h-16z"/><path d="m216 392h16v16h-16z"/><path d="m248 392h16v16h-16z"/><path d="m280 392h16v16h-16z"/><path d="m312 392h16v16h-16z"/><path d="m48 384h16v16h-16z"/><path d="m80 384h16v16h-16z"/><path d="m112 384h16v16h-16z"/><path d="m48 416h16v16h-16z"/><path d="m80 416h16v16h-16z"/><path d="m112 416h16v16h-16z"/><path d="m48 448h16v16h-16z"/><path d="m80 448h16v16h-16z"/><path d="m112 448h16v16h-16z"/></g><path d="m216 432h80v56h-80z" fill="#548aff"/><path d="m184 144h144l-24-40h-96z" fill="#7dafff"/><path d="m224 64h64v40h-64z" fill="#639aff"/><path d="m248 16h16v48h-16z" fill="#7dafff"/></svg>