<svg width="804" height="149" viewBox="0 0 804 149" fill="none" xmlns="http://www.w3.org/2000/svg">
<path d="M130.801 41.3613L91.5605 108.529L51.2598 41.3613L0 0L60.8047 24.3926L80.6016 58.3301L84.8438 34.291L91.5605 30.0488L103.227 37.8262L96.8633 41.3613L103.227 58.3301L123.023 24.3926L181 0L130.801 41.3613Z" fill="#F3A847"/>
<path d="M137.871 43.1289L130.094 57.9766L154.486 43.1289L176.404 11.3125L137.871 43.1289Z" fill="#F3A847"/>
<path d="M45.957 43.1289L53.7344 57.9766L29.3418 43.1289L7.42383 11.3125L45.957 43.1289Z" fill="#F3A847"/>
<path d="M124.438 66.4609L114.539 84.1367L151.305 50.1992L124.438 66.4609Z" fill="#F3A847"/>
<path d="M59.0371 66.4609L68.9355 84.1367L32.1699 50.1992L59.0371 66.4609Z" fill="#F3A847"/>
<path d="M68.9355 131.154L84.8438 109.236L77.7734 142.82L68.9355 131.154Z" fill="#F3A847"/>
<path d="M114.539 131.154L98.6309 109.236L105.701 142.82L114.539 131.154Z" fill="#F3A847"/>
<path d="M84.8438 148.123L91.207 117.721L97.5703 148.123H84.8438Z" fill="#F3A847"/>
<path d="M216.495 78.95V115.4C216.495 116.2 216.895 116.7 217.694 116.9C221.593 117.5 225.692 117.8 229.99 117.8C239.387 117.8 246.285 116.05 250.684 112.55C255.082 109.05 257.281 103.7 257.281 96.5C257.281 90 254.632 85.25 249.334 82.25C244.036 79.15 235.089 77.6 222.493 77.6H217.844C216.945 77.6 216.495 78.05 216.495 78.95ZM216.495 34.1V63.35C216.495 64.25 216.945 64.7 217.844 64.7H222.493C233.489 64.7 241.387 63.3 246.185 60.5C251.083 57.7 253.533 53.45 253.533 47.75C253.533 42.25 251.583 38.2 247.685 35.6C243.786 33 237.388 31.7 228.491 31.7C224.692 31.7 221.093 32 217.694 32.6C216.895 32.8 216.495 33.3 216.495 34.1ZM208.547 129.95C206.048 129.65 203.999 128.6 202.399 126.8C200.8 124.9 200 122.7 200 120.2V29.3C200 26.8 200.8 24.65 202.399 22.85C203.999 20.95 206.048 19.85 208.547 19.55C214.545 18.85 221.193 18.5 228.491 18.5C255.482 18.5 268.978 27.5 268.978 45.5C268.978 51.5 266.928 56.8 262.83 61.4C258.731 65.9 253.333 68.8 246.635 70.1C246.535 70.1 246.485 70.15 246.485 70.25C246.485 70.35 246.535 70.4 246.635 70.4C255.032 71.7 261.58 74.8 266.279 79.7C271.077 84.6 273.476 90.7 273.476 98C273.476 120 258.981 131 229.99 131C222.093 131 214.945 130.65 208.547 129.95Z" fill="white"/>
<path d="M342.06 90.5C342.06 71.5 335.163 62 321.367 62C307.571 62 300.674 71.5 300.674 90.5C300.674 109.5 307.571 119 321.367 119C335.163 119 342.06 109.5 342.06 90.5ZM348.358 120.5C341.86 127.5 332.863 131 321.367 131C309.871 131 300.874 127.5 294.376 120.5C287.878 113.4 284.629 103.4 284.629 90.5C284.629 77.6 287.878 67.65 294.376 60.65C300.874 53.55 309.871 50 321.367 50C332.863 50 341.86 53.55 348.358 60.65C354.856 67.65 358.105 77.6 358.105 90.5C358.105 103.4 354.856 113.4 348.358 120.5Z" fill="white"/>
<path d="M428.165 90.5C428.165 71.5 421.268 62 407.472 62C393.676 62 386.779 71.5 386.779 90.5C386.779 109.5 393.676 119 407.472 119C421.268 119 428.165 109.5 428.165 90.5ZM434.463 120.5C427.965 127.5 418.968 131 407.472 131C395.976 131 386.979 127.5 380.481 120.5C373.983 113.4 370.734 103.4 370.734 90.5C370.734 77.6 373.983 67.65 380.481 60.65C386.979 53.55 395.976 50 407.472 50C418.968 50 427.965 53.55 434.463 60.65C440.961 67.65 444.21 77.6 444.21 90.5C444.21 103.4 440.961 113.4 434.463 120.5Z" fill="white"/>
<path d="M474.718 127.25C473.219 128.75 471.369 129.5 469.17 129.5C466.971 129.5 465.121 128.75 463.622 127.25C462.122 125.75 461.373 123.9 461.373 121.7V24.8C461.373 22.6 462.122 20.75 463.622 19.25C465.121 17.75 466.971 17 469.17 17C471.369 17 473.219 17.75 474.718 19.25C476.318 20.75 477.117 22.6 477.117 24.8V85.85C477.117 85.95 477.167 86 477.267 86L477.567 85.85L504.259 57.65C508.157 53.55 512.956 51.5 518.654 51.5H520.303C521.903 51.5 523.003 52.25 523.602 53.75C524.302 55.25 524.102 56.55 523.003 57.65L493.762 88.1C493.262 88.6 493.262 89.2 493.762 89.9L523.153 123.2C524.252 124.4 524.452 125.75 523.752 127.25C523.153 128.75 522.003 129.5 520.303 129.5H518.654C513.056 129.5 508.357 127.35 504.559 123.05L477.567 92.15C477.467 92.05 477.367 92 477.267 92C477.167 92 477.117 92.05 477.117 92.15V121.7C477.117 123.9 476.318 125.75 474.718 127.25Z" fill="white"/>
<path d="M562.262 96.5C552.065 94 544.867 90.85 540.669 87.05C536.57 83.15 534.521 78.3 534.521 72.5C534.521 65.5 537.02 60 542.018 56C547.117 52 554.614 50 564.511 50C570.909 50 577.357 50.7 583.855 52.1C585.654 52.5 587.104 53.5 588.203 55.1C589.403 56.6 590.003 58.3 590.003 60.2C590.003 61.8 589.353 63.05 588.053 63.95C586.754 64.85 585.354 65.05 583.855 64.55C577.557 62.85 571.609 62 566.011 62C555.514 62 550.266 65 550.266 71C550.266 74 551.265 76.45 553.265 78.35C555.264 80.25 558.763 81.8 563.761 83C575.258 85.7 583.005 88.95 587.004 92.75C591.002 96.45 593.002 101.95 593.002 109.25C593.002 116.05 590.353 121.4 585.054 125.3C579.856 129.1 572.258 131 562.262 131C555.764 131 549.266 130.15 542.768 128.45C540.969 127.95 539.519 126.95 538.419 125.45C537.32 123.85 536.77 122.1 536.77 120.2C536.77 118.7 537.37 117.5 538.569 116.6C539.869 115.7 541.219 115.5 542.618 116C548.816 118 554.864 119 560.762 119C571.759 119 577.257 115.75 577.257 109.25C577.257 106.15 576.157 103.65 573.958 101.75C571.759 99.75 567.86 98 562.262 96.5Z" fill="white"/>
<path d="M626.427 127.25C624.927 128.75 623.078 129.5 620.879 129.5C618.679 129.5 616.83 128.75 615.33 127.25C613.831 125.75 613.081 123.9 613.081 121.7V24.8C613.081 22.6 613.831 20.75 615.33 19.25C616.83 17.75 618.679 17 620.879 17C623.078 17 624.927 17.75 626.427 19.25C628.026 20.75 628.826 22.6 628.826 24.8V61.1C628.826 61.2 628.876 61.25 628.976 61.25C629.076 61.25 629.176 61.2 629.276 61.1C636.274 53.7 644.121 50 652.818 50C661.915 50 668.563 52.55 672.762 57.65C676.961 62.65 679.06 71.1 679.06 83V121.85C679.06 123.95 678.31 125.75 676.811 127.25C675.311 128.75 673.512 129.5 671.412 129.5C669.313 129.5 667.514 128.75 666.014 127.25C664.515 125.75 663.765 123.95 663.765 121.85V86C663.765 76.7 662.665 70.5 660.466 67.4C658.267 64.3 654.218 62.75 648.32 62.75C643.721 62.75 639.323 64.95 635.124 69.35C630.925 73.65 628.826 78.2 628.826 83V121.7C628.826 123.9 628.026 125.75 626.427 127.25Z" fill="white"/>
<path d="M719.095 127.1C717.495 128.7 715.596 129.5 713.396 129.5C711.197 129.5 709.248 128.7 707.548 127.1C705.949 125.5 705.149 123.55 705.149 121.25V25.25C705.149 22.95 705.949 21 707.548 19.4C709.248 17.8 711.197 17 713.396 17C715.596 17 717.495 17.8 719.095 19.4C720.794 21 721.644 22.95 721.644 25.25V121.25C721.644 123.55 720.794 125.5 719.095 127.1Z" fill="white"/>
<path d="M751.517 66.5C749.917 66.5 748.518 65.9 747.318 64.7C746.119 63.5 745.519 62.1 745.519 60.5C745.519 58.9 746.119 57.5 747.318 56.3C748.518 55.1 749.917 54.5 751.517 54.5H760.664C761.564 54.5 762.014 54.05 762.014 53.15V48.5C762.014 38.1 764.263 30.5 768.761 25.7C773.26 20.9 780.258 18.5 789.755 18.5C792.354 18.5 795.153 18.75 798.152 19.25C799.851 19.55 801.251 20.45 802.351 21.95C803.45 23.35 804 24.95 804 26.75C804 28.15 803.4 29.3 802.201 30.2C801.001 31 799.701 31.25 798.302 30.95C796.502 30.65 794.653 30.5 792.754 30.5C787.455 30.5 783.757 31.75 781.657 34.25C779.558 36.65 778.508 41.15 778.508 47.75V53.15C778.508 54.05 778.958 54.5 779.858 54.5H796.502C798.102 54.5 799.501 55.1 800.701 56.3C801.901 57.5 802.5 58.9 802.5 60.5C802.5 62.1 801.901 63.5 800.701 64.7C799.501 65.9 798.102 66.5 796.502 66.5H779.858C778.958 66.5 778.508 66.95 778.508 67.85V121.25C778.508 123.55 777.708 125.5 776.109 127.1C774.51 128.7 772.56 129.5 770.261 129.5C767.962 129.5 766.012 128.7 764.413 127.1C762.813 125.5 762.014 123.55 762.014 121.25V67.85C762.014 66.95 761.564 66.5 760.664 66.5H751.517Z" fill="white"/>
</svg>
