<svg width="181" height="149" viewBox="0 0 181 149" fill="none" xmlns="http://www.w3.org/2000/svg">
<path d="M130.801 41.3613L91.5605 108.529L51.2598 41.3613L0 0L60.8047 24.3926L80.6016 58.3301L84.8438 34.291L91.5605 30.0488L103.227 37.8262L96.8633 41.3613L103.227 58.3301L123.023 24.3926L181 0L130.801 41.3613Z" fill="#F3A847"/>
<path d="M137.871 43.1289L130.094 57.9766L154.486 43.1289L176.404 11.3125L137.871 43.1289Z" fill="#F3A847"/>
<path d="M45.957 43.1289L53.7344 57.9766L29.3418 43.1289L7.42383 11.3125L45.957 43.1289Z" fill="#F3A847"/>
<path d="M124.438 66.4609L114.539 84.1367L151.305 50.1992L124.438 66.4609Z" fill="#F3A847"/>
<path d="M59.0371 66.4609L68.9355 84.1367L32.1699 50.1992L59.0371 66.4609Z" fill="#F3A847"/>
<path d="M68.9355 131.154L84.8438 109.236L77.7734 142.82L68.9355 131.154Z" fill="#F3A847"/>
<path d="M114.539 131.154L98.6309 109.236L105.701 142.82L114.539 131.154Z" fill="#F3A847"/>
<path d="M84.8438 148.123L91.207 117.721L97.5703 148.123H84.8438Z" fill="#F3A847"/>
</svg>
