<svg id="Capa_1" enable-background="new 0 0 512 512" height="512" viewBox="0 0 512 512" width="512" xmlns="http://www.w3.org/2000/svg"><g><path d="m437.02 74.98c-48.353-48.351-112.64-74.98-181.02-74.98s-132.667 26.629-181.02 74.98c-48.351 48.353-74.98 112.64-74.98 181.02s26.629 132.667 74.98 181.02c48.353 48.351 112.64 74.98 181.02 74.98s132.667-26.629 181.02-74.98c48.351-48.353 74.98-112.64 74.98-181.02s-26.629-132.667-74.98-181.02z" fill="#b3d9ff"/><path d="m437.02 437.02c48.351-48.353 74.98-112.64 74.98-181.02s-26.629-132.667-74.98-181.02c-48.353-48.351-112.64-74.98-181.02-74.98v512c68.38 0 132.667-26.629 181.02-74.98z" fill="#80aaff"/><circle cx="256" cy="256" fill="#293f65" r="192.383"/><path d="m448.383 256c0-106.08-86.303-192.383-192.383-192.383v384.766c106.08 0 192.383-86.303 192.383-192.383z" fill="#152133"/><path d="m256 220.073c-43.5 0-78.89 35.39-78.89 78.89v62.232c0 8.284 6.716 15 15 15h127.78c8.284 0 15-6.716 15-15v-62.232c0-43.5-35.39-78.89-78.89-78.89z" fill="#dd4e4e"/><path d="m319.89 376.195c8.284 0 15-6.716 15-15v-62.232c0-43.5-35.39-78.89-78.89-78.89v156.122z" fill="#c21456"/><path d="m256 135.805c-31.504 0-57.134 25.631-57.134 57.135s25.63 57.134 57.134 57.134 57.134-25.63 57.134-57.134-25.63-57.135-57.134-57.135z" fill="#ffe3c1"/><path d="m313.134 192.939c0-31.504-25.63-57.135-57.134-57.135v114.269c31.504 0 57.134-25.63 57.134-57.134z" fill="#f1d0a4"/></g></svg>